<svg xmlns="http://www.w3.org/2000/svg" viewBox="0 0 1440 320"><path fill="#7B4F35" fill-opacity="1" d="M0,64L20,85.3C40,107,80,149,120,160C160,171,200,149,240,138.7C280,128,320,128,360,149.3C400,171,440,213,480,208C520,203,560,149,600,122.7C640,96,680,96,720,90.7C760,85,800,75,840,106.7C880,139,920,213,960,213.3C1000,213,1040,139,1080,112C1120,85,1160,107,1200,101.3C1240,96,1280,64,1320,53.3C1360,43,1400,53,1420,58.7L1440,64L1440,0L1420,0C1400,0,1360,0,1320,0C1280,0,1240,0,1200,0C1160,0,1120,0,1080,0C1040,0,1000,0,960,0C920,0,880,0,840,0C800,0,760,0,720,0C680,0,640,0,600,0C560,0,520,0,480,0C440,0,400,0,360,0C320,0,280,0,240,0C200,0,160,0,120,0C80,0,40,0,20,0L0,0Z"></path></svg>
