<svg xmlns="http://www.w3.org/2000/svg" viewBox="0 0 1440 320"><path fill="#7B4F35" fill-opacity="1" d="M0,64L20,85.3C40,107,80,149,120,160C160,171,200,149,240,138.7C280,128,320,128,360,149.3C400,171,440,213,480,208C520,203,560,149,600,122.7C640,96,680,96,720,90.7C760,85,800,75,840,106.7C880,139,920,213,960,213.3C1000,213,1040,139,1080,112C1120,85,1160,107,1200,101.3C1240,96,1280,64,1320,53.3C1360,43,1400,53,1420,58.7L1440,64L1440,320L1420,320C1400,320,1360,320,1320,320C1280,320,1240,320,1200,320C1160,320,1120,320,1080,320C1040,320,1000,320,960,320C920,320,880,320,840,320C800,320,760,320,720,320C680,320,640,320,600,320C560,320,520,320,480,320C440,320,400,320,360,320C320,320,280,320,240,320C200,320,160,320,120,320C80,320,40,320,20,320L0,320Z"></path></svg>
