<svg xmlns="http://www.w3.org/2000/svg" viewBox="0 0 1440 320"><path fill="#3e2723" fill-opacity="1" d="M0,160L17.1,170.7C34.3,181,69,203,103,192C137.1,181,171,139,206,128C240,117,274,139,309,144C342.9,149,377,139,411,165.3C445.7,192,480,256,514,250.7C548.6,245,583,171,617,149.3C651.4,128,686,160,720,181.3C754.3,203,789,213,823,229.3C857.1,245,891,267,926,245.3C960,224,994,160,1029,133.3C1062.9,107,1097,117,1131,106.7C1165.7,96,1200,64,1234,96C1268.6,128,1303,224,1337,234.7C1371.4,245,1406,171,1423,133.3L1440,96L1440,320L1422.9,320C1405.7,320,1371,320,1337,320C1302.9,320,1269,320,1234,320C1200,320,1166,320,1131,320C1097.1,320,1063,320,1029,320C994.3,320,960,320,926,320C891.4,320,857,320,823,320C788.6,320,754,320,720,320C685.7,320,651,320,617,320C582.9,320,549,320,514,320C480,320,446,320,411,320C377.1,320,343,320,309,320C274.3,320,240,320,206,320C171.4,320,137,320,103,320C68.6,320,34,320,17,320L0,320Z"></path></svg>
